# File created by Blade
# Date/Time:  Tue Jan 27 17:01:45 2015
#---------------------------------------------------------
:version 1.10
:name HOM
:units
  mass 1.0
  length 1.000000
  angle deg
:documentation
     Acclaim Skeleton File
:root
   axis xyz
   order TX TY TZ RX RY RZ
   position 0.000000 0.000000 0.000000
   orientation 0 0 0
:bonedata
   begin
      id 1
      name Spine_dum
      direction 0.000000 1.000000 0.000000
      length 7.539951
      axis 0.0 0.0 0.0 xyz
   end
   begin
      id 2
      name LeftUpLeg_dum
      direction 1.000000 0.000000 0.000000
      length 3.345476
      axis 0.0 0.0 0.0 xyz
   end
   begin
      id 3
      name RightUpLeg_dum
      direction -1.000000 0.000000 0.000000
      length 3.345476
      axis 0.0 0.0 0.0 xyz
   end
   begin
      id 4
      name Spine
      direction 0.000000 1.000000 0.000000
      length 0.000000
      axis 0.0 0.0 0.0 xyz
      dof rx ry rz
   end
   begin
      id 5
      name Spine_dum1
      direction 0.000000 1.000000 0.000000
      length 15.093809
      axis 0.0 0.0 0.0 xyz
   end
   begin
      id 6
      name Spine_dum2
      direction 0.000000 1.000000 0.000000
      length 9.738928
      axis 0.0 0.0 0.0 xyz
   end
   begin
      id 7
      name Spine_dum3
      direction 0.000000 1.000000 0.000000
      length 9.738928
      axis 0.0 0.0 0.0 xyz
   end
   begin
      id 8
      name Head
      direction 0.000000 1.000000 0.000000
      length 4.527550
      axis 0.0 0.0 0.0 xyz
      dof rx ry rz
   end
   begin
      id 9
      name LeftShoulder
      direction 1.000000 0.000000 0.000000
      length 7.084015
      axis 0.0 0.0 -90.0 xyz
      dof rx ry rz
   end
   begin
      id 10
      name LeftArm
      direction 1.000000 0.000000 0.000000
      length 10.259319
      axis 0.0 0.0 -90.0 xyz
      dof rx ry rz
   end
   begin
      id 11
      name LeftForeArm
      direction 1.000000 0.000000 0.000000
      length 9.896984
      axis 0.0 0.0 -90.0 xyz
      dof ry rz rx
   end
   begin
      id 12
      name LeftHand
      direction 0.000000 0.000000 0.000000
      length 0.000000
      axis 0.0 0.0 -90.0 xyz
      dof rx ry rz
   end
   begin
      id 13
      name LeftHand_dum1
      direction 0.000000 0.000000 0.000000
      length 0.000000
      axis 0.0 0.0 -90.0 xyz
   end
   begin
      id 14
      name LeftHand_dum2
      direction 1.000000 0.000000 0.000000
      length 3.937000
      axis 0.0 0.0 -90.0 xyz
   end
   begin
      id 15
      name LeftHandThumb1
      direction 0.000000 0.000000 1.000000
      length 3.937000
      axis 0.0 0.0 -90.0 xyz
      dof rx rz ry
   end
   begin
      id 16
      name RightShoulder
      direction -1.000000 0.000000 0.000000
      length 7.084015
      axis 0.0 0.0 90.0 xyz
      dof rx ry rz
   end
   begin
      id 17
      name RightArm
      direction -1.000000 0.000000 0.000000
      length 10.259319
      axis 0.0 0.0 90.0 xyz
      dof rx ry rz
   end
   begin
      id 18
      name RightForeArm
      direction -1.000000 0.000000 0.000000
      length 9.896984
      axis 0.0 0.0 90.0 xyz
      dof ry rz rx
   end
   begin
      id 19
      name RightHand
      direction 0.000000 0.000000 0.000000
      length 0.000000
      axis 0.0 0.0 90.0 xyz
      dof rx ry rz
   end
   begin
      id 20
      name RightHand_dum1
      direction 0.000000 0.000000 0.000000
      length 0.000000
      axis 0.0 0.0 90.0 xyz
   end
   begin
      id 21
      name RightHand_dum2
      direction -1.000000 0.000000 0.000000
      length 3.937000
      axis 0.0 0.0 90.0 xyz
   end
   begin
      id 22
      name RightHandThumb1
      direction 0.000000 0.000000 1.000000
      length 3.937000
      axis 0.0 0.0 90.0 xyz
      dof rx rz ry
   end
   begin
      id 23
      name LeftUpLeg
      direction 0.000000 -1.000000 0.000000
      length 19.114733
      axis 0.0 0.0 0.0 xyz
      dof rx ry rz
   end
   begin
      id 24
      name LeftLeg
      direction 0.000000 -1.000000 0.000000
      length 16.045604
      axis 0.0 0.0 0.0 xyz
      dof rx ry rz
   end
   begin
      id 25
      name LeftFoot
      direction 0.000000 -0.258819 0.965926
      length 5.543155
      axis 15.0 0.0 0.0 xyz
      dof rx ry rz
   end
   begin
      id 26
      name LeftToeBase
      direction 0.000000 0.000000 1.000000
      length 2.952750
      axis 0.0 0.0 0.0 xyz
      dof rx ry rz
   end
   begin
      id 27
      name RightUpLeg
      direction 0.000000 -1.000000 0.000000
      length 19.114733
      axis 0.0 0.0 0.0 xyz
      dof rx ry rz
   end
   begin
      id 28
      name RightLeg
      direction 0.000000 -1.000000 0.000000
      length 16.045604
      axis 0.0 0.0 0.0 xyz
      dof rx ry rz
   end
   begin
      id 29
      name RightFoot
      direction 0.000000 -0.258819 0.965926
      length 5.543155
      axis 15.0 0.0 0.0 xyz
      dof rx ry rz
   end
   begin
      id 30
      name RightToeBase
      direction 0.000000 0.000000 1.000000
      length 2.952750
      axis 0.0 0.0 0.0 xyz
      dof rx ry rz
   end
:hierarchy
   begin
      root Spine_dum LeftUpLeg_dum RightUpLeg_dum
      Spine_dum Spine
      LeftUpLeg_dum LeftUpLeg
      RightUpLeg_dum RightUpLeg
      Spine Spine_dum1 Spine_dum2 Spine_dum3
      Spine_dum1 Head
      Spine_dum2 LeftShoulder
      Spine_dum3 RightShoulder
      LeftShoulder LeftArm
      LeftArm LeftForeArm
      LeftForeArm LeftHand
      LeftHand LeftHand_dum1 LeftHand_dum2
      LeftHand_dum1 LeftHandThumb1
      RightShoulder RightArm
      RightArm RightForeArm
      RightForeArm RightHand
      RightHand RightHand_dum1 RightHand_dum2
      RightHand_dum1 RightHandThumb1
      LeftUpLeg LeftLeg
      LeftLeg LeftFoot
      LeftFoot LeftToeBase
      RightUpLeg RightLeg
      RightLeg RightFoot
      RightFoot RightToeBase
   end

# File created by Blade
# Date/Time:  Tue Jan 27 17:01:38 2015
# Frame Rate: 120.000 fps
#------------------------------------------------------
:FULLY-SPECIFIED
:DEGREES
363
root -0.693052 36.839811 5.126463 6.063828 -17.433466 -2.276152
Spine -1.085015 -0.627650 1.830943
Head 0.225850 5.458782 3.753952
LeftShoulder 0.831034 -1.579472 -0.801383
LeftArm 4.000546 45.923908 -65.352484
LeftForeArm -73.233292 -0.000000 76.467035
LeftHand -7.607538 -0.000000 -26.469591
LeftHandThumb1 -26.253704 0.000000 33.147579
RightShoulder -2.869445 -22.614106 2.041089
RightArm 24.565446 -31.957264 51.766969
RightForeArm -138.282699 -0.000000 34.676095
RightHand 0.045292 -0.000000 -1.606920
RightHandThumb1 -24.326973 -0.000000 -32.862282
LeftUpLeg -0.213644 23.003629 4.934958
LeftLeg 7.757974 -0.000000 -0.000000
LeftFoot -20.905790 9.017420 -23.385440
LeftToeBase 14.643284 -0.000000 -0.000000
RightUpLeg -7.232855 0.345825 -1.352829
RightLeg 9.254534 -0.000000 -0.000000
RightFoot -12.180528 2.401795 11.633520
RightToeBase 10.760643 -0.000000 -0.000000
364
root -0.698063 36.840470 5.121927 6.078638 -17.434820 -2.289801
Spine -1.070065 -0.646503 1.809711
Head 0.179021 5.473100 3.718019
LeftShoulder 0.854457 -1.592066 -0.779078
LeftArm 3.934423 45.995224 -65.371567
LeftForeArm -73.032992 -0.000000 76.511356
LeftHand -8.326062 -0.000000 -25.736297
LeftHandThumb1 -26.253704 0.000000 33.147579
RightShoulder -2.877228 -22.613473 2.068360
RightArm 24.630382 -32.038811 51.706356
RightForeArm -138.493993 0.000000 34.731480
RightHand 0.024762 -0.000000 -1.602938
RightHandThumb1 -24.326973 -0.000000 -32.862282
LeftUpLeg -0.231841 23.005542 4.959885
LeftLeg 7.769637 -0.000000 -0.000000
LeftFoot -20.990665 8.946536 -23.609774
LeftToeBase 14.876440 -0.000000 -0.000000
RightUpLeg -7.241089 0.351812 -1.332591
RightLeg 9.237404 -0.000000 -0.000000
RightFoot -12.153757 2.406885 11.627841
RightToeBase 10.734902 -0.000000 -0.000000
365
root -0.701900 36.840941 5.117453 6.091500 -17.428291 -2.301120
Spine -1.057558 -0.668171 1.791360
Head 0.154647 5.488566 3.691508
LeftShoulder 0.882940 -1.620546 -0.756547
LeftArm 3.915894 46.144160 -65.400102
LeftForeArm -73.129891 0.000000 76.483943
LeftHand -8.061357 0.000000 -26.250719
LeftHandThumb1 -26.253704 0.000000 33.147579
RightShoulder -2.881145 -22.608722 2.087499
RightArm 24.704351 -32.124086 51.639342
RightForeArm -138.818843 -0.000000 34.776673
RightHand -0.056169 -0.000000 -1.613691
RightHandThumb1 -24.326973 -0.000000 -32.862282
LeftUpLeg -0.257564 23.024475 4.964458
LeftLeg 7.781160 -0.000000 -0.000000
LeftFoot -20.903567 9.003925 -23.374827
LeftToeBase 14.645897 -0.000000 -0.000000
RightUpLeg -7.250668 0.341887 -1.314813
RightLeg 9.228813 -0.000000 -0.000000
RightFoot -12.141072 2.411754 11.637779
RightToeBase 10.807190 -0.000000 -0.000000
366
root -0.706709 36.841481 5.113105 6.100965 -17.414477 -2.312160
Spine -1.048628 -0.689442 1.762804
Head 0.150979 5.492180 3.702481
LeftShoulder 0.913934 -1.626777 -0.725112
LeftArm 3.936661 46.262010 -65.394741
LeftForeArm -73.082099 -0.000000 76.451567
LeftHand -7.713071 -0.000000 -26.415518
LeftHandThumb1 -26.253704 0.000000 33.147579
RightShoulder -2.879697 -22.629566 2.119140
RightArm 24.774247 -32.155721 51.588016
RightForeArm -139.123398 -0.000000 34.828754
RightHand -0.117919 -0.000000 -1.654077
RightHandThumb1 -24.326973 -0.000000 -32.862282
LeftUpLeg -0.277527 23.022660 4.983675
LeftLeg 7.791571 -0.000000 -0.000000
LeftFoot -20.978106 8.964949 -23.565544
LeftToeBase 14.872776 -0.000000 -0.000000
RightUpLeg -7.253043 0.350321 -1.294738
RightLeg 9.213833 -0.000000 -0.000000
RightFoot -12.129287 2.380586 11.633434
RightToeBase 10.750798 -0.000000 -0.000000
367
root -0.709737 36.841881 5.108797 6.109465 -17.396246 -2.317758
Spine -1.025978 -0.700851 1.746957
Head 0.101937 5.489208 3.667407
LeftShoulder 0.938813 -1.641065 -0.707670
LeftArm 3.972460 46.391101 -65.374459
LeftForeArm -73.040197 -0.000000 76.423410
LeftHand -7.426654 -0.000000 -26.588279
LeftHandThumb1 -26.253704 0.000000 33.147579
RightShoulder -2.904961 -22.621786 2.138548
RightArm 24.838638 -32.185727 51.559402
RightForeArm -139.392416 0.000000 34.880735
RightHand -0.177072 0.000000 -1.783167
RightHandThumb1 -24.326973 -0.000000 -32.862282
LeftUpLeg -0.302182 23.012643 4.985459
LeftLeg 7.810323 -0.000000 -0.000000
LeftFoot -20.905686 9.004269 -23.380303
LeftToeBase 14.654719 -0.000000 -0.000000
RightUpLeg -7.261175 0.326623 -1.281117
RightLeg 9.206936 -0.000000 -0.000000
RightFoot -12.120373 2.400421 11.654362
RightToeBase 10.806344 -0.000000 -0.000000
368
root -0.714326 36.842592 5.104477 6.116349 -17.388011 -2.328019
Spine -1.013375 -0.715890 1.719904
Head 0.091380 5.491292 3.672331
LeftShoulder 0.963000 -1.635154 -0.687164
LeftArm 3.997098 46.474265 -65.350896
LeftForeArm -73.027913 0.000000 76.426029
LeftHand -7.321175 0.000000 -26.604095
LeftHandThumb1 -26.253704 0.000000 33.147579
RightShoulder -2.890303 -22.623382 2.157118
RightArm 24.893512 -32.199664 51.543066
RightForeArm -139.668167 -0.000000 34.925769
RightHand -0.232889 -0.000000 -1.800526
RightHandThumb1 -24.326973 -0.000000 -32.862282
LeftUpLeg -0.317328 23.029128 5.005989
LeftLeg 7.818693 -0.000000 -0.000000
LeftFoot -20.974408 8.947489 -23.572261
LeftToeBase 14.874897 -0.000000 -0.000000
RightUpLeg -7.267609 0.350846 -1.267151
RightLeg 9.206874 -0.000000 -0.000000
RightFoot -12.104037 2.373623 11.647261
RightToeBase 10.775077 -0.000000 -0.000000
369
root -0.718925 36.843000 5.101267 6.123202 -17.383344 -2.335939
Spine -0.999442 -0.720871 1.696338
Head 0.063705 5.482435 3.661881
LeftShoulder 0.970319 -1.636765 -0.662975
LeftArm 4.028839 46.517892 -65.330249
LeftForeArm -72.843510 0.000000 76.404735
LeftHand -7.393906 -0.000000 -26.766353
LeftHandThumb1 -26.253704 0.000000 33.147579
RightShoulder -2.887762 -22.604640 2.168856
RightArm 24.948181 -32.245510 51.524141
RightForeArm -140.014412 0.000000 34.994364
RightHand -0.231901 -0.000000 -1.689586
RightHandThumb1 -24.326973 -0.000000 -32.862282
LeftUpLeg -0.326225 23.036073 5.024465
LeftLeg 7.830317 -0.000000 -0.000000
LeftFoot -20.974141 8.912106 -23.596584
LeftToeBase 14.931937 -0.000000 -0.000000
RightUpLeg -7.273263 0.360509 -1.253008
RightLeg 9.203229 -0.000000 -0.000000
RightFoot -12.105524 2.372002 11.677179
RightToeBase 10.800477 -0.000000 -0.000000
370
root -0.721970 36.843512 5.098465 6.129064 -17.365869 -2.342185
Spine -0.985351 -0.729862 1.680524
Head 0.030264 5.446966 3.634182
LeftShoulder 0.987741 -1.653314 -0.652078
LeftArm 4.039806 46.588504 -65.321686
LeftForeArm -72.788616 -0.000000 76.397140
LeftHand -7.300643 -0.000000 -26.813247
LeftHandThumb1 -26.253704 0.000000 33.147579
RightShoulder -2.892072 -22.587000 2.174036
RightArm 24.998925 -32.279043 51.512375
RightForeArm -140.268133 -0.000000 35.049707
RightHand -0.383342 -0.000000 -1.672992
RightHandThumb1 -24.326973 -0.000000 -32.862282
LeftUpLeg -0.340657 23.030134 5.028062
LeftLeg 7.826698 -0.000000 -0.000000
LeftFoot -20.971018 8.949945 -23.563207
LeftToeBase 14.912626 -0.000000 -0.000000
RightUpLeg -7.276721 0.347486 -1.239417
RightLeg 9.198881 -0.000000 -0.000000
RightFoot -12.095471 2.377582 11.667777
RightToeBase 10.808835 -0.000000 -0.000000
371
root -0.725374 36.844145 5.096025 6.134384 -17.357254 -2.349479
Spine -0.979651 -0.733628 1.661081
Head 0.022853 5.422362 3.624559
LeftShoulder 1.000663 -1.645410 -0.646614
LeftArm 4.039180 46.660687 -65.335279
LeftForeArm -72.922810 -0.000000 76.415579
LeftHand -7.091479 -0.000000 -26.649913
LeftHandThumb1 -26.253704 0.000000 33.147579
RightShoulder -2.883861 -22.584829 2.177939
RightArm 25.063654 -32.297465 51.505822
RightForeArm -140.463555 -0.000000 35.089584
RightHand -0.390156 -0.000000 -1.684696
RightHandThumb1 -24.326973 -0.000000 -32.862282
LeftUpLeg -0.350195 23.037766 5.040489
LeftLeg 7.831456 -0.000000 -0.000000
LeftFoot -20.959025 8.939287 -23.559122
LeftToeBase 14.917273 -0.000000 -0.000000
RightUpLeg -7.280994 0.341699 -1.226678
RightLeg 9.197072 -0.000000 -0.000000
RightFoot -12.090119 2.387308 11.675380
RightToeBase 10.806319 -0.000000 -0.000000
